<?xml version="1.0" standalone="no"?>
<!DOCTYPE svg PUBLIC "-//W3C//DTD SVG 20010904//EN"
 "http://www.w3.org/TR/2001/REC-SVG-20010904/DTD/svg10.dtd">
<svg version="1.0" xmlns="http://www.w3.org/2000/svg"
 width="30.000000pt" height="30.000000pt" viewBox="0 0 30.000000 30.000000"
 preserveAspectRatio="xMidYMid meet">

<g transform="translate(0.000000,30.000000) scale(0.100000,-0.100000)"
fill="#6F4FF2" stroke="none">
<path d="M24 286 c-16 -13 -19 -29 -22 -129 -5 -155 -3 -157 148 -157 149 0
150 1 150 150 0 148 -2 150 -148 150 -78 0 -114 -4 -128 -14z m201 -86 c31
-49 31 -56 0 -103 -25 -36 -28 -37 -86 -37 -55 0 -60 2 -69 26 -13 34 -13 97
2 129 10 23 17 25 69 25 58 0 59 -1 84 -40z"/>
<path d="M92 186 c-6 -19 -7 -49 -3 -68 6 -30 11 -33 45 -36 25 -2 36 0 31 7
-3 6 -15 11 -25 11 -11 0 -27 11 -36 25 -15 23 -15 27 0 50 19 29 57 33 81 8
12 -12 15 -25 10 -52 -6 -36 -6 -36 10 -13 14 20 15 28 5 53 -15 35 -37 49
-79 49 -26 0 -31 -5 -39 -34z"/>
<path d="M131 167 c-16 -16 -14 -34 5 -41 21 -8 34 1 34 24 0 22 -23 33 -39
17z"/>
</g>
</svg>
